<svg width="310" height="266" viewBox="0 0 310 266" fill="none" xmlns="http://www.w3.org/2000/svg">
<g filter="url(#filter0_d_1_3067)">
<rect x="30" y="20" width="250" height="206" rx="10" fill="#FBFEFF"/>
<path d="M50.91 53V43.06H52.996V51.152H57.056V53H50.91ZM60.4992 43.606C60.4992 43.8207 60.4479 44.012 60.3452 44.18C60.2519 44.348 60.1166 44.4833 59.9392 44.586C59.7712 44.6793 59.5846 44.726 59.3792 44.726C59.1739 44.726 58.9826 44.6793 58.8052 44.586C58.6372 44.4833 58.5019 44.348 58.3992 44.18C58.3059 44.012 58.2592 43.8207 58.2592 43.606C58.2592 43.3913 58.3059 43.2 58.3992 43.032C58.5019 42.864 58.6372 42.7333 58.8052 42.64C58.9826 42.5373 59.1739 42.486 59.3792 42.486C59.5846 42.486 59.7712 42.5373 59.9392 42.64C60.1166 42.7333 60.2519 42.864 60.3452 43.032C60.4479 43.2 60.4992 43.3913 60.4992 43.606ZM58.3992 53V45.608H60.3592V53H58.3992ZM64.0686 53L61.2966 45.608H63.4386L65.0906 50.928L66.7706 45.608H68.8426L66.0706 53H64.0686ZM73.0145 53.21C72.4638 53.21 71.9551 53.1167 71.4885 52.93C71.0311 52.734 70.6345 52.4633 70.2985 52.118C69.9625 51.7633 69.7011 51.348 69.5145 50.872C69.3278 50.3867 69.2345 49.8593 69.2345 49.29C69.2345 48.7393 69.3278 48.226 69.5145 47.75C69.7011 47.274 69.9578 46.8633 70.2845 46.518C70.6205 46.1633 71.0125 45.888 71.4605 45.692C71.9085 45.496 72.3938 45.398 72.9165 45.398C73.4578 45.398 73.9478 45.4913 74.3865 45.678C74.8345 45.8647 75.2171 46.1307 75.5345 46.476C75.8518 46.8213 76.0945 47.232 76.2625 47.708C76.4398 48.184 76.5285 48.716 76.5285 49.304V49.794H71.2225C71.3065 50.3447 71.5071 50.7787 71.8245 51.096C72.1418 51.404 72.5431 51.558 73.0285 51.558C73.3645 51.558 73.6678 51.4787 73.9385 51.32C74.2185 51.1613 74.4471 50.9327 74.6245 50.634L76.3745 51.194C76.2065 51.614 75.9545 51.9733 75.6185 52.272C75.2825 52.5707 74.8905 52.804 74.4425 52.972C73.9945 53.1307 73.5185 53.21 73.0145 53.21ZM72.9165 46.91C72.4871 46.91 72.1231 47.05 71.8245 47.33C71.5351 47.61 71.3438 47.9927 71.2505 48.478H74.5125C74.4378 47.9927 74.2558 47.61 73.9665 47.33C73.6865 47.05 73.3365 46.91 72.9165 46.91ZM84.9267 53.28C84.2734 53.28 83.6854 53.182 83.1627 52.986C82.6401 52.7807 82.1921 52.4913 81.8187 52.118C81.4454 51.7353 81.1561 51.2827 80.9507 50.76C80.7547 50.228 80.6567 49.6353 80.6567 48.982V43.06H82.7427V48.884C82.7427 49.388 82.8314 49.8267 83.0087 50.2C83.1861 50.5733 83.4381 50.8627 83.7647 51.068C84.1007 51.264 84.4927 51.362 84.9407 51.362C85.3887 51.362 85.7761 51.264 86.1027 51.068C86.4294 50.8627 86.6814 50.5733 86.8587 50.2C87.0454 49.8267 87.1387 49.388 87.1387 48.884V43.06H89.2247V48.982C89.2247 49.6353 89.1221 50.228 88.9167 50.76C88.7207 51.2827 88.4314 51.7353 88.0487 52.118C87.6754 52.4913 87.2227 52.7807 86.6907 52.986C86.1681 53.182 85.5801 53.28 84.9267 53.28ZM90.7742 55.716V45.608H92.5802L92.6362 46.686C92.8882 46.2847 93.2242 45.972 93.6442 45.748C94.0642 45.5147 94.5262 45.398 95.0302 45.398C95.5156 45.398 95.9636 45.496 96.3742 45.692C96.7849 45.888 97.1442 46.1633 97.4522 46.518C97.7602 46.8633 97.9982 47.2693 98.1662 47.736C98.3436 48.2027 98.4322 48.7113 98.4322 49.262C98.4322 49.822 98.3436 50.34 98.1662 50.816C97.9889 51.292 97.7416 51.712 97.4242 52.076C97.1069 52.4307 96.7336 52.7107 96.3042 52.916C95.8749 53.112 95.4129 53.21 94.9182 53.21C94.4609 53.21 94.0456 53.1213 93.6722 52.944C93.2989 52.7573 92.9862 52.5007 92.7342 52.174V55.716H90.7742ZM94.5682 51.446C94.9229 51.446 95.2402 51.3527 95.5202 51.166C95.8002 50.9793 96.0196 50.7273 96.1782 50.41C96.3462 50.0833 96.4302 49.7147 96.4302 49.304C96.4302 48.8933 96.3462 48.5293 96.1782 48.212C96.0196 47.8853 95.8002 47.6287 95.5202 47.442C95.2402 47.2553 94.9229 47.162 94.5682 47.162C94.2136 47.162 93.8962 47.2553 93.6162 47.442C93.3362 47.6287 93.1122 47.8853 92.9442 48.212C92.7856 48.5293 92.7062 48.8933 92.7062 49.304C92.7062 49.7147 92.7856 50.0833 92.9442 50.41C93.1122 50.7273 93.3362 50.9793 93.6162 51.166C93.8962 51.3527 94.2136 51.446 94.5682 51.446ZM102.892 53.21C102.416 53.21 101.973 53.112 101.562 52.916C101.151 52.72 100.792 52.4493 100.484 52.104C100.176 51.7493 99.9333 51.3387 99.756 50.872C99.588 50.4053 99.504 49.8967 99.504 49.346C99.504 48.786 99.5927 48.268 99.77 47.792C99.9473 47.316 100.195 46.9007 100.512 46.546C100.829 46.182 101.198 45.902 101.618 45.706C102.047 45.5007 102.509 45.398 103.004 45.398C103.461 45.398 103.877 45.4913 104.25 45.678C104.633 45.8553 104.95 46.1073 105.202 46.434V42.556H107.162V53H105.356L105.3 51.922C105.039 52.3233 104.698 52.6407 104.278 52.874C103.867 53.098 103.405 53.21 102.892 53.21ZM103.368 51.446C103.723 51.446 104.04 51.3527 104.32 51.166C104.6 50.9793 104.819 50.7273 104.978 50.41C105.146 50.0833 105.23 49.7147 105.23 49.304C105.23 48.8933 105.146 48.5293 104.978 48.212C104.819 47.8853 104.6 47.6287 104.32 47.442C104.04 47.2553 103.723 47.162 103.368 47.162C103.013 47.162 102.696 47.2553 102.416 47.442C102.136 47.6287 101.912 47.8853 101.744 48.212C101.585 48.5293 101.506 48.8933 101.506 49.304C101.506 49.7147 101.585 50.0833 101.744 50.41C101.912 50.7273 102.136 50.9793 102.416 51.166C102.696 51.3527 103.013 51.446 103.368 51.446ZM111.007 53.21C110.625 53.21 110.275 53.154 109.957 53.042C109.64 52.93 109.36 52.7713 109.117 52.566C108.884 52.3513 108.702 52.104 108.571 51.824C108.441 51.544 108.375 51.236 108.375 50.9C108.375 50.4333 108.501 50.0227 108.753 49.668C109.005 49.3133 109.36 49.038 109.817 48.842C110.275 48.6367 110.807 48.534 111.413 48.534C111.721 48.534 112.011 48.562 112.281 48.618C112.561 48.674 112.832 48.7533 113.093 48.856V48.422C113.093 48.002 112.972 47.6613 112.729 47.4C112.496 47.1387 112.174 47.008 111.763 47.008C111.455 47.008 111.175 47.0873 110.923 47.246C110.671 47.3953 110.494 47.61 110.391 47.89L108.641 47.54C108.744 47.1107 108.945 46.7373 109.243 46.42C109.551 46.0933 109.925 45.8413 110.363 45.664C110.802 45.4867 111.278 45.398 111.791 45.398C112.267 45.398 112.701 45.4727 113.093 45.622C113.485 45.7713 113.821 45.986 114.101 46.266C114.391 46.546 114.61 46.8773 114.759 47.26C114.918 47.6333 114.997 48.0533 114.997 48.52V53H113.247L113.191 52.132C112.995 52.4493 112.711 52.7107 112.337 52.916C111.964 53.112 111.521 53.21 111.007 53.21ZM110.307 50.802C110.307 51.0633 110.415 51.278 110.629 51.446C110.844 51.614 111.129 51.698 111.483 51.698C111.791 51.698 112.067 51.6327 112.309 51.502C112.552 51.3713 112.743 51.194 112.883 50.97C113.023 50.7367 113.093 50.48 113.093 50.2V50.13C112.888 50.046 112.669 49.9807 112.435 49.934C112.202 49.878 111.969 49.85 111.735 49.85C111.297 49.85 110.947 49.9387 110.685 50.116C110.433 50.284 110.307 50.5127 110.307 50.802ZM119.519 53.21C119.006 53.21 118.563 53.112 118.189 52.916C117.825 52.7107 117.541 52.4167 117.335 52.034C117.139 51.6513 117.041 51.1847 117.041 50.634V47.19H115.781V45.608H117.041V43.088H119.001V45.608H121.017V47.19H119.001V50.396C119.001 50.7507 119.076 51.026 119.225 51.222C119.375 51.4087 119.603 51.502 119.911 51.502C120.07 51.502 120.238 51.4787 120.415 51.432C120.602 51.3853 120.779 51.3247 120.947 51.25L121.297 52.72C121.055 52.8693 120.784 52.986 120.485 53.07C120.187 53.1633 119.865 53.21 119.519 53.21ZM125.815 53.21C125.265 53.21 124.756 53.1167 124.289 52.93C123.832 52.734 123.435 52.4633 123.099 52.118C122.763 51.7633 122.502 51.348 122.315 50.872C122.129 50.3867 122.035 49.8593 122.035 49.29C122.035 48.7393 122.129 48.226 122.315 47.75C122.502 47.274 122.759 46.8633 123.085 46.518C123.421 46.1633 123.813 45.888 124.261 45.692C124.709 45.496 125.195 45.398 125.717 45.398C126.259 45.398 126.749 45.4913 127.187 45.678C127.635 45.8647 128.018 46.1307 128.335 46.476C128.653 46.8213 128.895 47.232 129.063 47.708C129.241 48.184 129.329 48.716 129.329 49.304V49.794H124.023C124.107 50.3447 124.308 50.7787 124.625 51.096C124.943 51.404 125.344 51.558 125.829 51.558C126.165 51.558 126.469 51.4787 126.739 51.32C127.019 51.1613 127.248 50.9327 127.425 50.634L129.175 51.194C129.007 51.614 128.755 51.9733 128.419 52.272C128.083 52.5707 127.691 52.804 127.243 52.972C126.795 53.1307 126.319 53.21 125.815 53.21ZM125.717 46.91C125.288 46.91 124.924 47.05 124.625 47.33C124.336 47.61 124.145 47.9927 124.051 48.478H127.313C127.239 47.9927 127.057 47.61 126.767 47.33C126.487 47.05 126.137 46.91 125.717 46.91Z" fill="#060640"/>
<rect opacity="0.06" x="50" y="70" width="210" height="1" fill="#060640"/>
<rect x="50" y="86" width="210" height="55" rx="10" fill="#ECF9FF"/>
<path d="M67.04 126.2C66.5267 126.2 66.0533 126.11 65.62 125.93C65.1933 125.743 64.8233 125.483 64.51 125.15C64.1967 124.817 63.9533 124.423 63.78 123.97C63.6067 123.517 63.52 123.023 63.52 122.49C63.52 122.057 63.5767 121.647 63.69 121.26C63.8033 120.873 63.9667 120.523 64.18 120.21C64.3933 119.897 64.6433 119.63 64.93 119.41C65.2233 119.183 65.5467 119.01 65.9 118.89C66.2533 118.763 66.63 118.7 67.03 118.7C67.4567 118.7 67.8567 118.77 68.23 118.91C68.6033 119.05 68.93 119.25 69.21 119.51C69.4967 119.763 69.7267 120.067 69.9 120.42L69.12 120.74C68.9067 120.34 68.62 120.03 68.26 119.81C67.9067 119.583 67.5 119.47 67.04 119.47C66.66 119.47 66.3067 119.547 65.98 119.7C65.66 119.847 65.38 120.057 65.14 120.33C64.9 120.597 64.7133 120.913 64.58 121.28C64.4467 121.647 64.38 122.047 64.38 122.48C64.38 122.9 64.4433 123.29 64.57 123.65C64.7033 124.01 64.89 124.323 65.13 124.59C65.37 124.857 65.6533 125.063 65.98 125.21C66.3067 125.357 66.6667 125.43 67.06 125.43C67.4 125.43 67.71 125.373 67.99 125.26C68.2767 125.147 68.5267 124.987 68.74 124.78C68.9533 124.573 69.12 124.327 69.24 124.04C69.36 123.753 69.4233 123.433 69.43 123.08H67.26V122.34H70.29V122.91C70.29 123.397 70.21 123.84 70.05 124.24C69.89 124.64 69.6633 124.987 69.37 125.28C69.0833 125.573 68.74 125.8 68.34 125.96C67.9467 126.12 67.5133 126.2 67.04 126.2ZM71.5125 126V120.84H72.2325L72.2825 121.8C72.4092 121.48 72.5992 121.23 72.8525 121.05C73.1058 120.863 73.4025 120.77 73.7425 120.77C73.8558 120.77 73.9558 120.78 74.0425 120.8C74.1358 120.813 74.2158 120.833 74.2825 120.86L74.1825 121.62C74.1092 121.593 74.0325 121.577 73.9525 121.57C73.8725 121.557 73.7925 121.55 73.7125 121.55C73.4325 121.55 73.1858 121.62 72.9725 121.76C72.7658 121.9 72.6025 122.1 72.4825 122.36C72.3692 122.613 72.3125 122.913 72.3125 123.26V126H71.5125ZM77.367 126.15C77.0003 126.15 76.6603 126.083 76.347 125.95C76.0403 125.81 75.7703 125.62 75.537 125.38C75.3103 125.133 75.1336 124.843 75.007 124.51C74.8803 124.177 74.817 123.813 74.817 123.42C74.817 123.027 74.8803 122.663 75.007 122.33C75.1403 121.997 75.3203 121.71 75.547 121.47C75.7803 121.223 76.0536 121.033 76.367 120.9C76.6803 120.76 77.0203 120.69 77.387 120.69C77.7536 120.69 78.0903 120.76 78.397 120.9C78.7103 121.033 78.9803 121.223 79.207 121.47C79.4403 121.71 79.6203 121.997 79.747 122.33C79.8736 122.663 79.937 123.027 79.937 123.42C79.937 123.813 79.8703 124.177 79.737 124.51C79.6103 124.843 79.4303 125.133 79.197 125.38C78.9703 125.62 78.7003 125.81 78.387 125.95C78.0736 126.083 77.7336 126.15 77.367 126.15ZM77.377 125.42C77.6303 125.42 77.8603 125.37 78.067 125.27C78.2803 125.17 78.4636 125.033 78.617 124.86C78.777 124.68 78.9003 124.47 78.987 124.23C79.0736 123.983 79.117 123.713 79.117 123.42C79.117 123.127 79.0736 122.86 78.987 122.62C78.9003 122.373 78.777 122.163 78.617 121.99C78.4636 121.81 78.2803 121.67 78.067 121.57C77.8603 121.47 77.6303 121.42 77.377 121.42C77.1236 121.42 76.8903 121.47 76.677 121.57C76.4703 121.67 76.287 121.81 76.127 121.99C75.9736 122.163 75.8536 122.373 75.767 122.62C75.6803 122.86 75.637 123.127 75.637 123.42C75.637 123.713 75.6803 123.983 75.767 124.23C75.8536 124.47 75.9736 124.68 76.127 124.86C76.287 125.033 76.4703 125.17 76.677 125.27C76.8903 125.37 77.1236 125.42 77.377 125.42ZM82.1759 126L80.4359 120.84H81.2759L82.5659 125.02L83.8959 120.84H84.6159L85.9359 125.02L87.2259 120.84H88.0459L86.3059 126H85.5359L84.2459 121.87L82.9459 126H82.1759ZM91.0499 126.15C90.7366 126.15 90.4666 126.087 90.2399 125.96C90.0133 125.833 89.8366 125.647 89.7099 125.4C89.5899 125.153 89.5299 124.853 89.5299 124.5V121.52H88.5799V120.84H89.5299V119.11H90.3299V120.84H91.9499V121.52H90.3299V124.46C90.3299 124.767 90.3933 125.007 90.5199 125.18C90.6533 125.347 90.8533 125.43 91.1199 125.43C91.2599 125.43 91.3999 125.41 91.5399 125.37C91.6866 125.323 91.8166 125.263 91.9299 125.19L92.1699 125.81C92.0299 125.91 91.8666 125.99 91.6799 126.05C91.4933 126.117 91.2833 126.15 91.0499 126.15ZM93.202 126V118.58H94.002V121.59C94.1553 121.317 94.3753 121.1 94.662 120.94C94.9486 120.773 95.272 120.69 95.632 120.69C96.0253 120.69 96.3686 120.783 96.662 120.97C96.9553 121.157 97.1786 121.423 97.332 121.77C97.492 122.11 97.572 122.513 97.572 122.98V126H96.772V123.03C96.772 122.517 96.6586 122.12 96.432 121.84C96.212 121.56 95.8953 121.42 95.482 121.42C95.1953 121.42 94.9386 121.487 94.712 121.62C94.492 121.747 94.3186 121.927 94.192 122.16C94.0653 122.387 94.002 122.647 94.002 122.94V126H93.202ZM101.122 126V120.84H101.842L101.892 121.8C102.019 121.48 102.209 121.23 102.462 121.05C102.715 120.863 103.012 120.77 103.352 120.77C103.465 120.77 103.565 120.78 103.652 120.8C103.745 120.813 103.825 120.833 103.892 120.86L103.792 121.62C103.719 121.593 103.642 121.577 103.562 121.57C103.482 121.557 103.402 121.55 103.322 121.55C103.042 121.55 102.795 121.62 102.582 121.76C102.375 121.9 102.212 122.1 102.092 122.36C101.979 122.613 101.922 122.913 101.922 123.26V126H101.122ZM106.335 126.15C105.975 126.15 105.655 126.083 105.375 125.95C105.095 125.81 104.875 125.62 104.715 125.38C104.562 125.14 104.485 124.863 104.485 124.55C104.485 124.21 104.572 123.917 104.745 123.67C104.925 123.423 105.175 123.233 105.495 123.1C105.815 122.96 106.188 122.89 106.615 122.89C106.855 122.89 107.098 122.917 107.345 122.97C107.592 123.023 107.812 123.093 108.005 123.18V122.8C108.005 122.52 107.948 122.277 107.835 122.07C107.728 121.857 107.578 121.693 107.385 121.58C107.192 121.46 106.965 121.4 106.705 121.4C106.392 121.4 106.118 121.473 105.885 121.62C105.658 121.767 105.488 121.973 105.375 122.24L104.675 122C104.768 121.733 104.912 121.503 105.105 121.31C105.305 121.117 105.542 120.967 105.815 120.86C106.095 120.753 106.395 120.7 106.715 120.7C107.128 120.7 107.488 120.79 107.795 120.97C108.108 121.143 108.348 121.39 108.515 121.71C108.688 122.023 108.775 122.393 108.775 122.82V126H108.075L108.025 125.2C107.878 125.487 107.655 125.717 107.355 125.89C107.062 126.063 106.722 126.15 106.335 126.15ZM105.295 124.52C105.295 124.713 105.345 124.883 105.445 125.03C105.545 125.17 105.685 125.28 105.865 125.36C106.045 125.44 106.252 125.48 106.485 125.48C106.772 125.48 107.028 125.417 107.255 125.29C107.488 125.157 107.672 124.98 107.805 124.76C107.938 124.533 108.005 124.277 108.005 123.99V123.8C107.785 123.713 107.562 123.647 107.335 123.6C107.115 123.547 106.905 123.52 106.705 123.52C106.265 123.52 105.918 123.61 105.665 123.79C105.418 123.97 105.295 124.213 105.295 124.52ZM111.909 126.15C111.596 126.15 111.326 126.087 111.099 125.96C110.873 125.833 110.696 125.647 110.569 125.4C110.449 125.153 110.389 124.853 110.389 124.5V121.52H109.439V120.84H110.389V119.11H111.189V120.84H112.809V121.52H111.189V124.46C111.189 124.767 111.253 125.007 111.379 125.18C111.513 125.347 111.713 125.43 111.979 125.43C112.119 125.43 112.259 125.41 112.399 125.37C112.546 125.323 112.676 125.263 112.789 125.19L113.029 125.81C112.889 125.91 112.726 125.99 112.539 126.05C112.353 126.117 112.143 126.15 111.909 126.15ZM116.304 126.15C115.924 126.15 115.574 126.083 115.254 125.95C114.94 125.817 114.667 125.63 114.434 125.39C114.2 125.143 114.02 124.857 113.894 124.53C113.767 124.197 113.704 123.83 113.704 123.43C113.704 123.037 113.764 122.677 113.884 122.35C114.01 122.017 114.184 121.727 114.404 121.48C114.63 121.233 114.894 121.043 115.194 120.91C115.494 120.77 115.82 120.7 116.174 120.7C116.514 120.7 116.827 120.763 117.114 120.89C117.407 121.017 117.66 121.193 117.874 121.42C118.087 121.647 118.25 121.917 118.364 122.23C118.484 122.543 118.544 122.883 118.544 123.25V123.58H114.534C114.56 123.953 114.647 124.28 114.794 124.56C114.947 124.84 115.15 125.057 115.404 125.21C115.657 125.363 115.95 125.44 116.284 125.44C116.61 125.44 116.894 125.373 117.134 125.24C117.38 125.1 117.59 124.897 117.764 124.63L118.444 124.94C118.31 125.193 118.137 125.41 117.924 125.59C117.71 125.77 117.464 125.907 117.184 126C116.91 126.1 116.617 126.15 116.304 126.15ZM116.174 121.38C115.9 121.38 115.65 121.447 115.424 121.58C115.204 121.713 115.017 121.9 114.864 122.14C114.717 122.373 114.62 122.647 114.574 122.96H117.704C117.677 122.647 117.594 122.373 117.454 122.14C117.314 121.9 117.134 121.713 116.914 121.58C116.694 121.447 116.447 121.38 116.174 121.38Z" fill="black"/>
<path d="M67.432 113.24C66.8027 113.24 66.216 113.133 65.672 112.92C65.1387 112.696 64.6747 112.365 64.28 111.928C63.896 111.491 63.624 110.957 63.464 110.328L65.192 109.992C65.3627 110.504 65.64 110.899 66.024 111.176C66.408 111.453 66.8667 111.592 67.4 111.592C67.7947 111.592 68.1467 111.517 68.456 111.368C68.7653 111.219 69.0053 111.011 69.176 110.744C69.3573 110.477 69.448 110.173 69.448 109.832C69.448 109.491 69.3573 109.192 69.176 108.936C69.0053 108.669 68.76 108.467 68.44 108.328C68.1307 108.189 67.7627 108.12 67.336 108.12H66.152V106.488H67.256C67.6507 106.488 67.992 106.424 68.28 106.296C68.5787 106.157 68.808 105.965 68.968 105.72C69.128 105.475 69.208 105.192 69.208 104.872C69.208 104.573 69.1333 104.312 68.984 104.088C68.8347 103.864 68.6267 103.688 68.36 103.56C68.104 103.432 67.8 103.368 67.448 103.368C66.968 103.368 66.5413 103.501 66.168 103.768C65.8053 104.035 65.5493 104.419 65.4 104.92L63.672 104.584C63.8 104.008 64.0453 103.507 64.408 103.08C64.7707 102.653 65.2187 102.323 65.752 102.088C66.2853 101.843 66.8773 101.72 67.528 101.72C68.04 101.72 68.5093 101.795 68.936 101.944C69.3733 102.083 69.752 102.285 70.072 102.552C70.392 102.819 70.6373 103.139 70.808 103.512C70.9893 103.875 71.08 104.28 71.08 104.728C71.08 105.283 70.936 105.773 70.648 106.2C70.3707 106.627 69.9707 106.963 69.448 107.208C70.0347 107.421 70.4933 107.763 70.824 108.232C71.1653 108.701 71.336 109.251 71.336 109.88C71.336 110.36 71.2347 110.808 71.032 111.224C70.84 111.629 70.568 111.981 70.216 112.28C69.864 112.579 69.448 112.813 68.968 112.984C68.4987 113.155 67.9867 113.24 67.432 113.24ZM73.8758 113L77.9238 103.672H72.4038V101.96H79.9878V103.4L75.9557 113H73.8758ZM83.8841 106.808C83.4041 106.808 82.9775 106.701 82.6041 106.488C82.2308 106.275 81.9321 105.981 81.7081 105.608C81.4948 105.235 81.3881 104.808 81.3881 104.328C81.3881 103.848 81.4948 103.421 81.7081 103.048C81.9321 102.664 82.2361 102.365 82.6201 102.152C83.0041 101.928 83.4361 101.816 83.9161 101.816C84.3961 101.816 84.8228 101.928 85.1961 102.152C85.5695 102.365 85.8628 102.659 86.0761 103.032C86.3001 103.405 86.4121 103.832 86.4121 104.312C86.4121 104.792 86.3001 105.219 86.0761 105.592C85.8628 105.965 85.5641 106.264 85.1801 106.488C84.7961 106.701 84.3641 106.808 83.8841 106.808ZM84.0921 113H82.5561L89.4521 101.96H90.9881L84.0921 113ZM82.8121 104.312C82.8121 104.557 82.8601 104.776 82.9561 104.968C83.0521 105.149 83.1801 105.293 83.3401 105.4C83.5001 105.507 83.6868 105.56 83.9001 105.56C84.1135 105.56 84.3001 105.507 84.4601 105.4C84.6201 105.293 84.7481 105.149 84.8441 104.968C84.9401 104.776 84.9881 104.557 84.9881 104.312C84.9881 104.067 84.9401 103.853 84.8441 103.672C84.7481 103.48 84.6201 103.331 84.4601 103.224C84.3001 103.117 84.1135 103.064 83.9001 103.064C83.6868 103.064 83.5001 103.117 83.3401 103.224C83.1801 103.331 83.0521 103.48 82.9561 103.672C82.8601 103.853 82.8121 104.067 82.8121 104.312ZM89.6281 113.144C89.1588 113.144 88.7321 113.037 88.3481 112.824C87.9748 112.611 87.6761 112.317 87.4521 111.944C87.2388 111.571 87.1321 111.144 87.1321 110.664C87.1321 110.184 87.2388 109.757 87.4521 109.384C87.6761 109 87.9748 108.701 88.3481 108.488C88.7321 108.264 89.1695 108.152 89.6601 108.152C90.1295 108.152 90.5508 108.264 90.9241 108.488C91.3081 108.701 91.6068 108.995 91.8201 109.368C92.0441 109.741 92.1561 110.168 92.1561 110.648C92.1561 111.128 92.0441 111.555 91.8201 111.928C91.6068 112.301 91.3081 112.6 90.9241 112.824C90.5508 113.037 90.1188 113.144 89.6281 113.144ZM89.6441 111.896C89.8468 111.896 90.0281 111.843 90.1881 111.736C90.3588 111.629 90.4921 111.485 90.5881 111.304C90.6841 111.112 90.7321 110.893 90.7321 110.648C90.7321 110.403 90.6841 110.189 90.5881 110.008C90.4921 109.816 90.3588 109.667 90.1881 109.56C90.0281 109.453 89.8468 109.4 89.6441 109.4C89.4415 109.4 89.2548 109.453 89.0841 109.56C88.9241 109.667 88.7961 109.816 88.7001 110.008C88.6041 110.189 88.5561 110.403 88.5561 110.648C88.5561 110.893 88.6041 111.112 88.7001 111.304C88.7961 111.485 88.9241 111.629 89.0841 111.736C89.2548 111.843 89.4415 111.896 89.6441 111.896Z" fill="#00E5CC"/>
<path d="M167 124.5C167 124.5 190.86 98.5582 207 105C214.955 108.175 214.529 118.738 223 120C233.739 121.599 245 103 245 103" stroke="#00E5CC"/>
<rect x="50" y="151" width="210" height="55" rx="10" fill="#ECF9FF"/>
<path d="M63.78 191V183.9H64.52L68.48 189.59V183.9H69.3V191H68.56L64.6 185.31V191H63.78ZM73.1201 191.15C72.7401 191.15 72.3901 191.083 72.0701 190.95C71.7567 190.817 71.4834 190.63 71.2501 190.39C71.0167 190.143 70.8367 189.857 70.7101 189.53C70.5834 189.197 70.5201 188.83 70.5201 188.43C70.5201 188.037 70.5801 187.677 70.7001 187.35C70.8267 187.017 71.0001 186.727 71.2201 186.48C71.4467 186.233 71.7101 186.043 72.0101 185.91C72.3101 185.77 72.6367 185.7 72.9901 185.7C73.3301 185.7 73.6434 185.763 73.9301 185.89C74.2234 186.017 74.4767 186.193 74.6901 186.42C74.9034 186.647 75.0667 186.917 75.1801 187.23C75.3001 187.543 75.3601 187.883 75.3601 188.25V188.58H71.3501C71.3767 188.953 71.4634 189.28 71.6101 189.56C71.7634 189.84 71.9667 190.057 72.2201 190.21C72.4734 190.363 72.7667 190.44 73.1001 190.44C73.4267 190.44 73.7101 190.373 73.9501 190.24C74.1967 190.1 74.4067 189.897 74.5801 189.63L75.2601 189.94C75.1267 190.193 74.9534 190.41 74.7401 190.59C74.5267 190.77 74.2801 190.907 74.0001 191C73.7267 191.1 73.4334 191.15 73.1201 191.15ZM72.9901 186.38C72.7167 186.38 72.4667 186.447 72.2401 186.58C72.0201 186.713 71.8334 186.9 71.6801 187.14C71.5334 187.373 71.4367 187.647 71.3901 187.96H74.5201C74.4934 187.647 74.4101 187.373 74.2701 187.14C74.1301 186.9 73.9501 186.713 73.7301 186.58C73.5101 186.447 73.2634 186.38 72.9901 186.38ZM77.7813 191L76.0413 185.84H76.8813L78.1713 190.02L79.5013 185.84H80.2213L81.5413 190.02L82.8313 185.84H83.6513L81.9113 191H81.1413L79.8513 186.87L78.5513 191H77.7813ZM89.4976 191.2C89.0709 191.2 88.6842 191.133 88.3376 191C87.9976 190.86 87.7042 190.66 87.4576 190.4C87.2109 190.14 87.0209 189.83 86.8876 189.47C86.7609 189.103 86.6976 188.697 86.6976 188.25V183.9H87.5376V188.22C87.5376 188.673 87.6176 189.067 87.7776 189.4C87.9376 189.727 88.1642 189.98 88.4576 190.16C88.7509 190.34 89.1009 190.43 89.5076 190.43C89.9142 190.43 90.2642 190.34 90.5576 190.16C90.8509 189.98 91.0776 189.727 91.2376 189.4C91.3976 189.067 91.4776 188.673 91.4776 188.22V183.9H92.3176V188.25C92.3176 188.697 92.2509 189.1 92.1176 189.46C91.9842 189.82 91.7942 190.13 91.5476 190.39C91.3009 190.65 91.0042 190.85 90.6576 190.99C90.3109 191.13 89.9242 191.2 89.4976 191.2ZM95.33 191.15C95.03 191.15 94.7467 191.1 94.48 191C94.22 190.9 93.9933 190.757 93.8 190.57C93.6067 190.383 93.46 190.163 93.36 189.91L94.08 189.65C94.2133 189.903 94.3867 190.1 94.6 190.24C94.8133 190.38 95.0567 190.45 95.33 190.45C95.55 190.45 95.7433 190.413 95.91 190.34C96.0767 190.267 96.2067 190.167 96.3 190.04C96.3933 189.907 96.44 189.76 96.44 189.6C96.44 189.167 96.1267 188.887 95.5 188.76L95.11 188.68C94.5633 188.573 94.16 188.4 93.9 188.16C93.64 187.913 93.51 187.603 93.51 187.23C93.51 186.93 93.5867 186.663 93.74 186.43C93.8933 186.197 94.1067 186.017 94.38 185.89C94.66 185.757 94.9767 185.69 95.33 185.69C95.6233 185.69 95.8933 185.74 96.14 185.84C96.3867 185.933 96.5967 186.073 96.77 186.26C96.95 186.447 97.0867 186.667 97.18 186.92L96.46 187.16C96.3533 186.913 96.2 186.723 96 186.59C95.8067 186.45 95.58 186.38 95.32 186.38C95.12 186.38 94.9433 186.413 94.79 186.48C94.6433 186.547 94.5267 186.637 94.44 186.75C94.3533 186.863 94.31 186.997 94.31 187.15C94.31 187.363 94.39 187.533 94.55 187.66C94.7167 187.787 94.9833 187.887 95.35 187.96L95.74 188.04C96.2333 188.14 96.61 188.317 96.87 188.57C97.13 188.817 97.26 189.133 97.26 189.52C97.26 189.76 97.21 189.98 97.11 190.18C97.0167 190.373 96.8833 190.543 96.71 190.69C96.5433 190.837 96.34 190.95 96.1 191.03C95.8667 191.11 95.61 191.15 95.33 191.15ZM100.659 191.15C100.279 191.15 99.9291 191.083 99.6091 190.95C99.2958 190.817 99.0225 190.63 98.7891 190.39C98.5558 190.143 98.3758 189.857 98.2491 189.53C98.1225 189.197 98.0591 188.83 98.0591 188.43C98.0591 188.037 98.1191 187.677 98.2391 187.35C98.3658 187.017 98.5391 186.727 98.7591 186.48C98.9858 186.233 99.2491 186.043 99.5491 185.91C99.8491 185.77 100.176 185.7 100.529 185.7C100.869 185.7 101.182 185.763 101.469 185.89C101.762 186.017 102.016 186.193 102.229 186.42C102.442 186.647 102.606 186.917 102.719 187.23C102.839 187.543 102.899 187.883 102.899 188.25V188.58H98.8891C98.9158 188.953 99.0025 189.28 99.1491 189.56C99.3025 189.84 99.5058 190.057 99.7591 190.21C100.012 190.363 100.306 190.44 100.639 190.44C100.966 190.44 101.249 190.373 101.489 190.24C101.736 190.1 101.946 189.897 102.119 189.63L102.799 189.94C102.666 190.193 102.492 190.41 102.279 190.59C102.066 190.77 101.819 190.907 101.539 191C101.266 191.1 100.972 191.15 100.659 191.15ZM100.529 186.38C100.256 186.38 100.006 186.447 99.7791 186.58C99.5591 186.713 99.3725 186.9 99.2191 187.14C99.0725 187.373 98.9758 187.647 98.9291 187.96H102.059C102.032 187.647 101.949 187.373 101.809 187.14C101.669 186.9 101.489 186.713 101.269 186.58C101.049 186.447 100.802 186.38 100.529 186.38ZM104.042 191V185.84H104.762L104.812 186.8C104.938 186.48 105.128 186.23 105.382 186.05C105.635 185.863 105.932 185.77 106.272 185.77C106.385 185.77 106.485 185.78 106.572 185.8C106.665 185.813 106.745 185.833 106.812 185.86L106.712 186.62C106.638 186.593 106.562 186.577 106.482 186.57C106.402 186.557 106.322 186.55 106.242 186.55C105.962 186.55 105.715 186.62 105.502 186.76C105.295 186.9 105.132 187.1 105.012 187.36C104.898 187.613 104.842 187.913 104.842 188.26V191H104.042ZM109.422 191.15C109.122 191.15 108.838 191.1 108.572 191C108.312 190.9 108.085 190.757 107.892 190.57C107.698 190.383 107.552 190.163 107.452 189.91L108.172 189.65C108.305 189.903 108.478 190.1 108.692 190.24C108.905 190.38 109.148 190.45 109.422 190.45C109.642 190.45 109.835 190.413 110.002 190.34C110.168 190.267 110.298 190.167 110.392 190.04C110.485 189.907 110.532 189.76 110.532 189.6C110.532 189.167 110.218 188.887 109.592 188.76L109.202 188.68C108.655 188.573 108.252 188.4 107.992 188.16C107.732 187.913 107.602 187.603 107.602 187.23C107.602 186.93 107.678 186.663 107.832 186.43C107.985 186.197 108.198 186.017 108.472 185.89C108.752 185.757 109.068 185.69 109.422 185.69C109.715 185.69 109.985 185.74 110.232 185.84C110.478 185.933 110.688 186.073 110.862 186.26C111.042 186.447 111.178 186.667 111.272 186.92L110.552 187.16C110.445 186.913 110.292 186.723 110.092 186.59C109.898 186.45 109.672 186.38 109.412 186.38C109.212 186.38 109.035 186.413 108.882 186.48C108.735 186.547 108.618 186.637 108.532 186.75C108.445 186.863 108.402 186.997 108.402 187.15C108.402 187.363 108.482 187.533 108.642 187.66C108.808 187.787 109.075 187.887 109.442 187.96L109.832 188.04C110.325 188.14 110.702 188.317 110.962 188.57C111.222 188.817 111.352 189.133 111.352 189.52C111.352 189.76 111.302 189.98 111.202 190.18C111.108 190.373 110.975 190.543 110.802 190.69C110.635 190.837 110.432 190.95 110.192 191.03C109.958 191.11 109.702 191.15 109.422 191.15Z" fill="black"/>
<path d="M66.36 178V168.992L63.96 170.336L63.304 168.784L66.648 166.96H68.216V178H66.36ZM71.9226 178.064C71.6986 178.064 71.496 178.011 71.3146 177.904C71.1333 177.797 70.984 177.653 70.8666 177.472C70.76 177.28 70.7066 177.072 70.7066 176.848C70.7066 176.624 70.76 176.421 70.8666 176.24C70.984 176.048 71.1333 175.899 71.3146 175.792C71.496 175.685 71.6986 175.632 71.9226 175.632C72.1466 175.632 72.3493 175.685 72.5306 175.792C72.712 175.899 72.856 176.048 72.9626 176.24C73.08 176.421 73.1386 176.624 73.1386 176.848C73.1386 177.072 73.08 177.28 72.9626 177.472C72.856 177.653 72.712 177.797 72.5306 177.904C72.3493 178.011 72.1466 178.064 71.9226 178.064ZM78.6806 178.24C78.0406 178.24 77.454 178.112 76.9206 177.856C76.398 177.6 75.9446 177.237 75.5606 176.768C75.1873 176.299 74.894 175.733 74.6806 175.072C74.478 174.4 74.3766 173.659 74.3766 172.848C74.3766 171.963 74.4993 171.147 74.7446 170.4C74.99 169.653 75.3366 169.008 75.7846 168.464C76.2326 167.909 76.766 167.483 77.3846 167.184C78.0033 166.875 78.6913 166.72 79.4486 166.72C79.918 166.72 80.366 166.784 80.7926 166.912C81.2193 167.029 81.6193 167.211 81.9926 167.456L81.4326 168.992C81.166 168.821 80.862 168.688 80.5206 168.592C80.19 168.485 79.8433 168.432 79.4806 168.432C78.8833 168.432 78.35 168.581 77.8806 168.88C77.422 169.168 77.0486 169.605 76.7606 170.192C76.4833 170.768 76.3073 171.477 76.2326 172.32C76.4993 171.883 76.862 171.541 77.3206 171.296C77.79 171.04 78.334 170.912 78.9526 170.912C79.4753 170.912 79.9606 171.003 80.4086 171.184C80.8566 171.365 81.246 171.621 81.5766 171.952C81.9073 172.272 82.1633 172.651 82.3446 173.088C82.5366 173.515 82.6326 173.979 82.6326 174.48C82.6326 175.013 82.5313 175.509 82.3286 175.968C82.1366 176.416 81.8593 176.811 81.4966 177.152C81.134 177.493 80.7126 177.76 80.2326 177.952C79.7526 178.144 79.2353 178.24 78.6806 178.24ZM78.6646 176.608C79.0593 176.608 79.4113 176.517 79.7206 176.336C80.0406 176.144 80.2913 175.893 80.4726 175.584C80.654 175.264 80.7446 174.907 80.7446 174.512C80.7446 174.117 80.654 173.771 80.4726 173.472C80.2913 173.163 80.046 172.923 79.7366 172.752C79.4273 172.571 79.0753 172.48 78.6806 172.48C78.286 172.48 77.934 172.571 77.6246 172.752C77.3153 172.923 77.07 173.157 76.8886 173.456C76.7073 173.755 76.6166 174.101 76.6166 174.496C76.6166 174.891 76.7073 175.248 76.8886 175.568C77.07 175.888 77.3153 176.144 77.6246 176.336C77.934 176.517 78.2806 176.608 78.6646 176.608ZM87.6355 178.24C86.9955 178.24 86.4088 178.123 85.8755 177.888C85.3528 177.653 84.9048 177.323 84.5315 176.896C84.1582 176.459 83.8968 175.952 83.7475 175.376L85.5075 175.072C85.6782 175.552 85.9502 175.925 86.3235 176.192C86.7075 176.459 87.1448 176.592 87.6355 176.592C88.0302 176.592 88.3822 176.507 88.6915 176.336C89.0115 176.155 89.2568 175.915 89.4275 175.616C89.6088 175.307 89.6995 174.955 89.6995 174.56C89.6995 174.176 89.6088 173.835 89.4275 173.536C89.2568 173.237 89.0168 173.003 88.7075 172.832C88.3982 172.661 88.0462 172.576 87.6515 172.576C87.3102 172.576 86.9795 172.645 86.6595 172.784C86.3395 172.912 86.0728 173.083 85.8595 173.296L84.3555 173.136V166.96H90.7715V168.672H86.1155V171.536C86.6168 171.131 87.2462 170.928 88.0035 170.928C88.5155 170.928 88.9902 171.019 89.4275 171.2C89.8648 171.381 90.2435 171.637 90.5635 171.968C90.8835 172.288 91.1342 172.667 91.3155 173.104C91.4968 173.541 91.5875 174.016 91.5875 174.528C91.5875 175.061 91.4862 175.557 91.2835 176.016C91.0808 176.464 90.7982 176.859 90.4355 177.2C90.0728 177.531 89.6515 177.787 89.1715 177.968C88.7022 178.149 88.1902 178.24 87.6355 178.24ZM93.1981 178V166.64H95.0861L98.8621 173.6L102.654 166.64H104.462V178H102.526V170.16L99.5501 175.632H98.1101L95.1341 170.16V178H93.1981Z" fill="#00E5CC"/>
<path d="M164 186.104C164 186.104 178.111 163.278 191.5 165.104C204.583 166.889 199.316 192.337 212.5 191.604C223.963 190.967 220.531 169.095 232 169.604C237.586 169.852 245 175.604 245 175.604" stroke="#00E5CC"/>
<g opacity="0.2">
<circle cx="258.5" cy="44.5" r="1.5" fill="#060640"/>
<circle cx="258.5" cy="50.5" r="1.5" fill="#060640"/>
</g>
</g>
<defs>
<filter id="filter0_d_1_3067" x="0" y="0" width="310" height="266" filterUnits="userSpaceOnUse" color-interpolation-filters="sRGB">
<feFlood flood-opacity="0" result="BackgroundImageFix"/>
<feColorMatrix in="SourceAlpha" type="matrix" values="0 0 0 0 0 0 0 0 0 0 0 0 0 0 0 0 0 0 127 0" result="hardAlpha"/>
<feOffset dy="10"/>
<feGaussianBlur stdDeviation="15"/>
<feComposite in2="hardAlpha" operator="out"/>
<feColorMatrix type="matrix" values="0 0 0 0 0.0235294 0 0 0 0 0.0235294 0 0 0 0 0.25098 0 0 0 0.03 0"/>
<feBlend mode="normal" in2="BackgroundImageFix" result="effect1_dropShadow_1_3067"/>
<feBlend mode="normal" in="SourceGraphic" in2="effect1_dropShadow_1_3067" result="shape"/>
</filter>
</defs>
</svg>
