<svg width="253" height="244" viewBox="0 0 253 244" fill="none" xmlns="http://www.w3.org/2000/svg">
<g filter="url(#filter0_d_1_3083)">
<rect x="25" y="17" width="202.929" height="194" rx="8.11716" fill="#FBFEFF"/>
<g filter="url(#filter1_d_1_3083)">
<rect x="41.2344" y="33.2344" width="36.5272" height="36.5272" rx="18.2636" fill="white"/>
<path d="M64.6727 50.9708C65.0785 51.2051 65.0785 51.7909 64.6727 52.0252L57.3672 56.243C56.9614 56.4774 56.4541 56.1845 56.4541 55.7158V47.2802C56.4541 46.8116 56.9614 46.5187 57.3672 46.753L64.6727 50.9708Z" fill="#060640"/>
</g>
<path d="M89.053 48.1046V40.0362H91.9849C92.5304 40.0362 93.0001 40.1233 93.3941 40.2975C93.7956 40.4642 94.1024 40.7066 94.3145 41.0248C94.5343 41.3354 94.6441 41.7029 94.6441 42.1271C94.6441 42.5135 94.5608 42.8544 94.3941 43.1499C94.2274 43.4378 93.9926 43.6651 93.6895 43.8317C94.0986 43.9908 94.4168 44.2446 94.6441 44.5931C94.8714 44.9341 94.985 45.3394 94.985 45.8091C94.985 46.2788 94.8638 46.6841 94.6214 47.025C94.3789 47.366 94.038 47.6311 93.5986 47.8205C93.1592 48.0099 92.6402 48.1046 92.0417 48.1046H89.053ZM90.6894 41.4339V43.2863H91.8031C92.1743 43.2863 92.4584 43.2105 92.6554 43.059C92.86 42.8999 92.9622 42.6688 92.9622 42.3658C92.9622 42.0627 92.86 41.8317 92.6554 41.6726C92.4584 41.5135 92.1743 41.4339 91.8031 41.4339H90.6894ZM90.6894 46.7068H91.9622C92.3865 46.7068 92.7122 46.6159 92.9395 46.4341C93.1744 46.2523 93.2918 45.9909 93.2918 45.65C93.2918 45.3091 93.1744 45.0477 92.9395 44.8659C92.7122 44.684 92.3865 44.5931 91.9622 44.5931H90.6894V46.7068ZM98.7024 48.2751C98.1569 48.2751 97.6796 48.1614 97.2705 47.9342C96.869 47.6993 96.5546 47.3697 96.3273 46.9455C96.1076 46.5137 95.9978 46.0061 95.9978 45.4227V42.1044H97.5887V45.4568C97.5887 45.8886 97.691 46.2296 97.8955 46.4796C98.1001 46.722 98.3766 46.8432 98.7251 46.8432C99.0736 46.8432 99.3501 46.722 99.5547 46.4796C99.7592 46.2296 99.8615 45.8886 99.8615 45.4568V42.1044H101.452V45.4227C101.452 45.8545 101.388 46.2447 101.259 46.5932C101.131 46.9417 100.945 47.2409 100.702 47.491C100.46 47.741 100.168 47.9342 99.8274 48.0705C99.4941 48.2069 99.1191 48.2751 98.7024 48.2751ZM104.882 48.2751C104.458 48.2751 104.071 48.2069 103.723 48.0705C103.382 47.9342 103.09 47.741 102.848 47.491C102.613 47.2409 102.45 46.9455 102.359 46.6046L103.791 46.2977C103.867 46.5326 104.003 46.7182 104.2 46.8546C104.397 46.9909 104.632 47.0591 104.905 47.0591C105.162 47.0591 105.375 47.0023 105.541 46.8887C105.708 46.775 105.791 46.6197 105.791 46.4227C105.791 46.2561 105.715 46.1197 105.564 46.0136C105.42 45.9 105.178 45.8129 104.837 45.7523L104.518 45.6954C103.867 45.5818 103.371 45.3697 103.03 45.0591C102.696 44.7484 102.53 44.3545 102.53 43.8772C102.53 43.4984 102.628 43.1651 102.825 42.8772C103.022 42.5817 103.295 42.3506 103.643 42.184C103.992 42.0173 104.393 41.934 104.848 41.934C105.25 41.934 105.613 42.0021 105.939 42.1385C106.272 42.2673 106.549 42.4529 106.769 42.6953C106.988 42.9378 107.14 43.2295 107.223 43.5704L105.803 43.8658C105.727 43.6386 105.602 43.4605 105.428 43.3317C105.261 43.2029 105.064 43.1385 104.837 43.1385C104.602 43.1385 104.409 43.1954 104.257 43.309C104.106 43.4226 104.03 43.5666 104.03 43.7408C104.03 43.8924 104.102 44.0211 104.246 44.1272C104.397 44.2257 104.651 44.3052 105.007 44.3659L105.325 44.4227C105.969 44.5363 106.462 44.7522 106.803 45.0704C107.144 45.381 107.314 45.7788 107.314 46.2636C107.314 46.5591 107.253 46.8281 107.132 47.0705C107.019 47.3129 106.852 47.525 106.632 47.7069C106.412 47.8887 106.155 48.0289 105.859 48.1273C105.564 48.2258 105.238 48.2751 104.882 48.2751ZM110.01 40.4794C110.01 40.6536 109.968 40.8089 109.885 40.9453C109.809 41.0817 109.699 41.1915 109.555 41.2748C109.419 41.3506 109.267 41.3885 109.101 41.3885C108.934 41.3885 108.779 41.3506 108.635 41.2748C108.498 41.1915 108.388 41.0817 108.305 40.9453C108.229 40.8089 108.191 40.6536 108.191 40.4794C108.191 40.3051 108.229 40.1498 108.305 40.0134C108.388 39.8771 108.498 39.771 108.635 39.6952C108.779 39.6119 108.934 39.5702 109.101 39.5702C109.267 39.5702 109.419 39.6119 109.555 39.6952C109.699 39.771 109.809 39.8771 109.885 40.0134C109.968 40.1498 110.01 40.3051 110.01 40.4794ZM108.305 48.1046V42.1044H109.896V48.1046H108.305ZM111.168 48.1046V42.1044H112.634L112.68 42.8772C112.854 42.5893 113.093 42.362 113.396 42.1953C113.706 42.0211 114.059 41.934 114.452 41.934C114.892 41.934 115.274 42.04 115.6 42.2521C115.934 42.4567 116.191 42.7522 116.373 43.1385C116.555 43.5249 116.646 43.9795 116.646 44.5022V48.1046H115.055V44.7068C115.055 44.2901 114.96 43.9643 114.771 43.7295C114.581 43.487 114.32 43.3658 113.987 43.3658C113.744 43.3658 113.532 43.4226 113.35 43.5363C113.168 43.6423 113.024 43.7939 112.918 43.9908C112.812 44.1878 112.759 44.4113 112.759 44.6613V48.1046H111.168ZM120.757 48.2751C120.31 48.2751 119.897 48.1993 119.518 48.0478C119.147 47.8887 118.825 47.669 118.552 47.3887C118.279 47.1008 118.067 46.7637 117.916 46.3773C117.764 45.9833 117.688 45.5553 117.688 45.0931C117.688 44.6462 117.764 44.2295 117.916 43.8431C118.067 43.4567 118.276 43.1234 118.541 42.8431C118.813 42.5552 119.132 42.3317 119.495 42.1726C119.859 42.0135 120.253 41.934 120.677 41.934C121.117 41.934 121.514 42.0097 121.87 42.1612C122.234 42.3128 122.545 42.5287 122.802 42.809C123.06 43.0893 123.257 43.4226 123.393 43.809C123.537 44.1954 123.609 44.6272 123.609 45.1045V45.5023H119.302C119.37 45.9492 119.533 46.3015 119.791 46.5591C120.048 46.8091 120.374 46.9341 120.768 46.9341C121.041 46.9341 121.287 46.8697 121.507 46.7409C121.734 46.6121 121.92 46.4265 122.064 46.1841L123.484 46.6387C123.348 46.9796 123.143 47.2713 122.87 47.5137C122.598 47.7561 122.279 47.9455 121.916 48.0819C121.552 48.2107 121.166 48.2751 120.757 48.2751ZM120.677 43.1613C120.329 43.1613 120.033 43.2749 119.791 43.5022C119.556 43.7295 119.401 44.0401 119.325 44.434H121.973C121.912 44.0401 121.764 43.7295 121.529 43.5022C121.302 43.2749 121.018 43.1613 120.677 43.1613ZM126.822 48.2751C126.398 48.2751 126.012 48.2069 125.663 48.0705C125.322 47.9342 125.03 47.741 124.788 47.491C124.553 47.2409 124.39 46.9455 124.299 46.6046L125.731 46.2977C125.807 46.5326 125.943 46.7182 126.14 46.8546C126.337 46.9909 126.572 47.0591 126.845 47.0591C127.103 47.0591 127.315 47.0023 127.481 46.8887C127.648 46.775 127.731 46.6197 127.731 46.4227C127.731 46.2561 127.656 46.1197 127.504 46.0136C127.36 45.9 127.118 45.8129 126.777 45.7523L126.459 45.6954C125.807 45.5818 125.311 45.3697 124.97 45.0591C124.637 44.7484 124.47 44.3545 124.47 43.8772C124.47 43.4984 124.568 43.1651 124.765 42.8772C124.962 42.5817 125.235 42.3506 125.584 42.184C125.932 42.0173 126.334 41.934 126.788 41.934C127.19 41.934 127.553 42.0021 127.879 42.1385C128.212 42.2673 128.489 42.4529 128.709 42.6953C128.928 42.9378 129.08 43.2295 129.163 43.5704L127.743 43.8658C127.667 43.6386 127.542 43.4605 127.368 43.3317C127.201 43.2029 127.004 43.1385 126.777 43.1385C126.542 43.1385 126.349 43.1954 126.197 43.309C126.046 43.4226 125.97 43.5666 125.97 43.7408C125.97 43.8924 126.042 44.0211 126.186 44.1272C126.337 44.2257 126.591 44.3052 126.947 44.3659L127.265 44.4227C127.909 44.5363 128.402 44.7522 128.743 45.0704C129.084 45.381 129.254 45.7788 129.254 46.2636C129.254 46.5591 129.193 46.8281 129.072 47.0705C128.959 47.3129 128.792 47.525 128.572 47.7069C128.353 47.8887 128.095 48.0289 127.8 48.1273C127.504 48.2258 127.178 48.2751 126.822 48.2751ZM132.404 48.2751C131.98 48.2751 131.594 48.2069 131.245 48.0705C130.904 47.9342 130.613 47.741 130.37 47.491C130.135 47.2409 129.972 46.9455 129.882 46.6046L131.313 46.2977C131.389 46.5326 131.526 46.7182 131.722 46.8546C131.919 46.9909 132.154 47.0591 132.427 47.0591C132.685 47.0591 132.897 47.0023 133.063 46.8887C133.23 46.775 133.313 46.6197 133.313 46.4227C133.313 46.2561 133.238 46.1197 133.086 46.0136C132.942 45.9 132.7 45.8129 132.359 45.7523L132.041 45.6954C131.389 45.5818 130.893 45.3697 130.552 45.0591C130.219 44.7484 130.052 44.3545 130.052 43.8772C130.052 43.4984 130.15 43.1651 130.347 42.8772C130.544 42.5817 130.817 42.3506 131.166 42.184C131.514 42.0173 131.916 41.934 132.37 41.934C132.772 41.934 133.135 42.0021 133.461 42.1385C133.795 42.2673 134.071 42.4529 134.291 42.6953C134.51 42.9378 134.662 43.2295 134.745 43.5704L133.325 43.8658C133.249 43.6386 133.124 43.4605 132.95 43.3317C132.783 43.2029 132.586 43.1385 132.359 43.1385C132.124 43.1385 131.931 43.1954 131.779 43.309C131.628 43.4226 131.552 43.5666 131.552 43.7408C131.552 43.8924 131.624 44.0211 131.768 44.1272C131.919 44.2257 132.173 44.3052 132.529 44.3659L132.848 44.4227C133.491 44.5363 133.984 44.7522 134.325 45.0704C134.666 45.381 134.836 45.7788 134.836 46.2636C134.836 46.5591 134.776 46.8281 134.654 47.0705C134.541 47.3129 134.374 47.525 134.154 47.7069C133.935 47.8887 133.677 48.0289 133.382 48.1273C133.086 48.2258 132.76 48.2751 132.404 48.2751ZM137.748 48.1046L140.952 40.0362H142.748L145.964 48.1046H144.225L143.566 46.3318H140.077L139.418 48.1046H137.748ZM140.611 44.9H143.032L141.816 41.6839L140.611 44.9ZM149.308 48.2751C148.762 48.2751 148.285 48.1614 147.876 47.9342C147.474 47.6993 147.16 47.3697 146.933 46.9455C146.713 46.5137 146.603 46.0061 146.603 45.4227V42.1044H148.194V45.4568C148.194 45.8886 148.296 46.2296 148.501 46.4796C148.705 46.722 148.982 46.8432 149.331 46.8432C149.679 46.8432 149.956 46.722 150.16 46.4796C150.365 46.2296 150.467 45.8886 150.467 45.4568V42.1044H152.058V45.4227C152.058 45.8545 151.993 46.2447 151.865 46.5932C151.736 46.9417 151.55 47.2409 151.308 47.491C151.065 47.741 150.774 47.9342 150.433 48.0705C150.099 48.2069 149.724 48.2751 149.308 48.2751ZM155.931 48.2751C155.514 48.2751 155.154 48.1955 154.851 48.0364C154.556 47.8698 154.325 47.6311 154.158 47.3205C153.999 47.0099 153.919 46.6311 153.919 46.1841V43.3885H152.896V42.1044H153.919V40.0589H155.51V42.1044H157.147V43.3885H155.51V45.9909C155.51 46.2788 155.571 46.5023 155.692 46.6614C155.813 46.8129 155.999 46.8887 156.249 46.8887C156.378 46.8887 156.514 46.8697 156.658 46.8318C156.81 46.794 156.953 46.7447 157.09 46.6841L157.374 47.8773C157.177 47.9986 156.957 48.0933 156.715 48.1614C156.472 48.2372 156.211 48.2751 155.931 48.2751ZM161.087 48.2751C160.64 48.2751 160.227 48.1955 159.848 48.0364C159.469 47.8773 159.14 47.6576 158.859 47.3773C158.579 47.0894 158.359 46.7523 158.2 46.3659C158.049 45.9795 157.973 45.5591 157.973 45.1045C157.973 44.65 158.052 44.2333 158.212 43.8545C158.371 43.4681 158.59 43.131 158.871 42.8431C159.159 42.5552 159.492 42.3317 159.871 42.1726C160.257 42.0135 160.678 41.934 161.132 41.934C161.579 41.934 161.992 42.0135 162.371 42.1726C162.75 42.3317 163.079 42.5552 163.359 42.8431C163.64 43.1234 163.856 43.4567 164.007 43.8431C164.166 44.2219 164.246 44.6386 164.246 45.0931C164.246 45.5477 164.166 45.9682 164.007 46.3546C163.848 46.7409 163.625 47.0781 163.337 47.366C163.056 47.6538 162.723 47.8773 162.337 48.0364C161.958 48.1955 161.541 48.2751 161.087 48.2751ZM161.109 46.8432C161.397 46.8432 161.655 46.7674 161.882 46.6159C162.109 46.4644 162.287 46.2599 162.416 46.0023C162.553 45.7371 162.621 45.4379 162.621 45.1045C162.621 44.7712 162.553 44.4757 162.416 44.2181C162.287 43.953 162.109 43.7446 161.882 43.5931C161.655 43.4416 161.397 43.3658 161.109 43.3658C160.822 43.3658 160.564 43.4416 160.337 43.5931C160.109 43.7446 159.928 43.953 159.791 44.2181C159.662 44.4757 159.598 44.7712 159.598 45.1045C159.598 45.4379 159.662 45.7371 159.791 46.0023C159.928 46.2599 160.109 46.4644 160.337 46.6159C160.564 46.7674 160.822 46.8432 161.109 46.8432ZM165.292 48.1046V42.1044H166.758L166.803 42.8658C166.977 42.5779 167.212 42.3506 167.508 42.184C167.803 42.0173 168.136 41.934 168.508 41.934C168.909 41.934 169.265 42.0324 169.576 42.2294C169.894 42.4264 170.14 42.6991 170.315 43.0476C170.496 42.7143 170.758 42.4453 171.099 42.2408C171.447 42.0362 171.845 41.934 172.292 41.934C172.739 41.934 173.125 42.04 173.451 42.2521C173.777 42.4567 174.027 42.7522 174.201 43.1385C174.383 43.5249 174.474 43.9795 174.474 44.5022V48.1046H172.883V44.7068C172.883 44.2901 172.792 43.9643 172.61 43.7295C172.428 43.487 172.174 43.3658 171.849 43.3658C171.621 43.3658 171.417 43.4226 171.235 43.5363C171.061 43.6423 170.924 43.7939 170.826 43.9908C170.727 44.1878 170.678 44.4113 170.678 44.6613V48.1046H169.087V44.7068C169.087 44.2901 168.996 43.9643 168.814 43.7295C168.633 43.487 168.379 43.3658 168.053 43.3658C167.826 43.3658 167.621 43.4226 167.439 43.5363C167.265 43.6423 167.129 43.7939 167.03 43.9908C166.932 44.1878 166.883 44.4113 166.883 44.6613V48.1046H165.292ZM177.598 48.2751C177.287 48.2751 177.003 48.2296 176.746 48.1387C176.488 48.0478 176.261 47.919 176.064 47.7523C175.874 47.5781 175.727 47.3773 175.621 47.15C175.515 46.9228 175.462 46.6727 175.462 46.4C175.462 46.0212 175.564 45.6879 175.768 45.4C175.973 45.1121 176.261 44.8886 176.632 44.7295C177.003 44.5628 177.435 44.4795 177.928 44.4795C178.178 44.4795 178.412 44.5022 178.632 44.5477C178.859 44.5931 179.079 44.6575 179.291 44.7409V44.3886C179.291 44.0477 179.193 43.7711 178.996 43.559C178.806 43.3469 178.545 43.2408 178.212 43.2408C177.962 43.2408 177.734 43.3052 177.53 43.434C177.325 43.5552 177.181 43.7295 177.098 43.9567L175.677 43.6726C175.761 43.3242 175.924 43.0211 176.166 42.7635C176.416 42.4984 176.719 42.2938 177.075 42.1499C177.431 42.0059 177.818 41.934 178.234 41.934C178.621 41.934 178.973 41.9946 179.291 42.1158C179.609 42.237 179.882 42.4112 180.109 42.6385C180.344 42.8658 180.522 43.1348 180.644 43.4454C180.772 43.7484 180.837 44.0893 180.837 44.4681V48.1046H179.416L179.371 47.4C179.212 47.6576 178.981 47.8698 178.678 48.0364C178.375 48.1955 178.015 48.2751 177.598 48.2751ZM177.03 46.3205C177.03 46.5326 177.117 46.7068 177.291 46.8432C177.465 46.9796 177.696 47.0478 177.984 47.0478C178.234 47.0478 178.458 46.9947 178.655 46.8887C178.852 46.7826 179.007 46.6387 179.121 46.4568C179.234 46.2674 179.291 46.0591 179.291 45.8318V45.775C179.125 45.7068 178.946 45.6538 178.757 45.6159C178.568 45.5704 178.378 45.5477 178.189 45.5477C177.833 45.5477 177.549 45.6197 177.337 45.7636C177.132 45.9 177.03 46.0856 177.03 46.3205ZM184.507 48.2751C184.091 48.2751 183.731 48.1955 183.428 48.0364C183.132 47.8698 182.901 47.6311 182.734 47.3205C182.575 47.0099 182.496 46.6311 182.496 46.1841V43.3885H181.473V42.1044H182.496V40.0589H184.087V42.1044H185.723V43.3885H184.087V45.9909C184.087 46.2788 184.147 46.5023 184.269 46.6614C184.39 46.8129 184.575 46.8887 184.825 46.8887C184.954 46.8887 185.091 46.8697 185.234 46.8318C185.386 46.794 185.53 46.7447 185.666 46.6841L185.95 47.8773C185.753 47.9986 185.534 48.0933 185.291 48.1614C185.049 48.2372 184.788 48.2751 184.507 48.2751ZM188.592 40.4794C188.592 40.6536 188.551 40.8089 188.467 40.9453C188.392 41.0817 188.282 41.1915 188.138 41.2748C188.001 41.3506 187.85 41.3885 187.683 41.3885C187.516 41.3885 187.361 41.3506 187.217 41.2748C187.081 41.1915 186.971 41.0817 186.888 40.9453C186.812 40.8089 186.774 40.6536 186.774 40.4794C186.774 40.3051 186.812 40.1498 186.888 40.0134C186.971 39.8771 187.081 39.771 187.217 39.6952C187.361 39.6119 187.516 39.5702 187.683 39.5702C187.85 39.5702 188.001 39.6119 188.138 39.6952C188.282 39.771 188.392 39.8771 188.467 40.0134C188.551 40.1498 188.592 40.3051 188.592 40.4794ZM186.888 48.1046V42.1044H188.479V48.1046H186.888ZM192.637 48.2751C192.19 48.2751 191.777 48.1955 191.399 48.0364C191.02 47.8773 190.69 47.6576 190.41 47.3773C190.13 47.0894 189.91 46.7523 189.751 46.3659C189.599 45.9795 189.524 45.5591 189.524 45.1045C189.524 44.65 189.603 44.2333 189.762 43.8545C189.921 43.4681 190.141 43.131 190.421 42.8431C190.709 42.5552 191.043 42.3317 191.421 42.1726C191.808 42.0135 192.228 41.934 192.683 41.934C193.13 41.934 193.543 42.0135 193.921 42.1726C194.3 42.3317 194.63 42.5552 194.91 42.8431C195.19 43.1234 195.406 43.4567 195.558 43.8431C195.717 44.2219 195.797 44.6386 195.797 45.0931C195.797 45.5477 195.717 45.9682 195.558 46.3546C195.399 46.7409 195.175 47.0781 194.887 47.366C194.607 47.6538 194.274 47.8773 193.887 48.0364C193.509 48.1955 193.092 48.2751 192.637 48.2751ZM192.66 46.8432C192.948 46.8432 193.206 46.7674 193.433 46.6159C193.66 46.4644 193.838 46.2599 193.967 46.0023C194.103 45.7371 194.171 45.4379 194.171 45.1045C194.171 44.7712 194.103 44.4757 193.967 44.2181C193.838 43.953 193.66 43.7446 193.433 43.5931C193.206 43.4416 192.948 43.3658 192.66 43.3658C192.372 43.3658 192.115 43.4416 191.887 43.5931C191.66 43.7446 191.478 43.953 191.342 44.2181C191.213 44.4757 191.149 44.7712 191.149 45.1045C191.149 45.4379 191.213 45.7371 191.342 46.0023C191.478 46.2599 191.66 46.4644 191.887 46.6159C192.115 46.7674 192.372 46.8432 192.66 46.8432ZM196.842 48.1046V42.1044H198.308L198.354 42.8772C198.528 42.5893 198.767 42.362 199.07 42.1953C199.38 42.0211 199.733 41.934 200.127 41.934C200.566 41.934 200.949 42.04 201.274 42.2521C201.608 42.4567 201.865 42.7522 202.047 43.1385C202.229 43.5249 202.32 43.9795 202.32 44.5022V48.1046H200.729V44.7068C200.729 44.2901 200.634 43.9643 200.445 43.7295C200.255 43.487 199.994 43.3658 199.661 43.3658C199.418 43.3658 199.206 43.4226 199.024 43.5363C198.842 43.6423 198.698 43.7939 198.592 43.9908C198.486 44.1878 198.433 44.4113 198.433 44.6613V48.1046H196.842Z" fill="#060640"/>
<path d="M89.0444 60.9979V60.4541H90.4324V59.0417H91.0087V60.4541H92.4049V60.9979H91.0087V62.459H90.4324V60.9979H89.0444ZM94.9192 62.9623V58.1001L93.588 58.8469L93.3201 58.3112L95.0409 57.3614H95.5848V62.9623H94.9192ZM97.4439 62.9866C97.3573 62.9866 97.2762 62.965 97.2004 62.9217C97.1301 62.8784 97.0732 62.8216 97.0299 62.7512C96.9867 62.6755 96.965 62.5916 96.965 62.4996C96.965 62.4076 96.9867 62.3264 97.0299 62.2561C97.0732 62.1803 97.1301 62.1208 97.2004 62.0775C97.2762 62.0342 97.3573 62.0126 97.4439 62.0126C97.5305 62.0126 97.609 62.0342 97.6793 62.0775C97.7551 62.1208 97.8146 62.1803 97.8579 62.2561C97.9066 62.3264 97.931 62.4076 97.931 62.4996C97.931 62.5916 97.9066 62.6755 97.8579 62.7512C97.8146 62.8216 97.7551 62.8784 97.6793 62.9217C97.609 62.965 97.5305 62.9866 97.4439 62.9866ZM98.9062 62.9623V62.4103C99.2741 62.1073 99.6178 61.8123 99.937 61.5255C100.262 61.2333 100.546 60.9628 100.789 60.7138C101.044 60.4541 101.244 60.2268 101.39 60.032C101.542 59.8372 101.65 59.6586 101.715 59.4963C101.78 59.3285 101.812 59.158 101.812 58.9849C101.812 58.7576 101.766 58.5601 101.674 58.3923C101.582 58.2192 101.455 58.0866 101.293 57.9946C101.136 57.8972 100.949 57.8485 100.733 57.8485C100.44 57.8485 100.189 57.9378 99.9776 58.1163C99.7666 58.2949 99.6151 58.5438 99.5231 58.8631L98.9062 58.7089C98.9765 58.4113 99.101 58.1542 99.2795 57.9378C99.4581 57.7159 99.6719 57.5454 99.9208 57.4264C100.175 57.3019 100.451 57.2397 100.749 57.2397C100.998 57.2397 101.228 57.283 101.439 57.3696C101.65 57.4507 101.834 57.5671 101.991 57.7186C102.148 57.8701 102.269 58.0487 102.356 58.2543C102.448 58.46 102.494 58.6818 102.494 58.9199C102.494 59.2663 102.391 59.618 102.185 59.9752C101.985 60.3269 101.666 60.7165 101.228 61.144C101.125 61.2414 101 61.3551 100.854 61.485C100.714 61.6148 100.559 61.7528 100.392 61.8989C100.229 62.045 100.061 62.1912 99.8883 62.3373H102.591V62.9623H98.9062ZM103.691 62.9623V57.1991H104.332L106.443 61.0629L108.561 57.1991H109.178V62.9623H108.513V58.4654L106.702 61.7609H106.167L104.357 58.4654V62.9623H103.691ZM113.146 62.9623L111.733 58.7738H112.415L113.462 62.1668L114.542 58.7738H115.126L116.198 62.1668L117.245 58.7738H117.911L116.498 62.9623H115.873L114.826 59.6099L113.771 62.9623H113.146ZM119.827 63.084C119.535 63.084 119.275 63.0299 119.048 62.9217C118.821 62.8081 118.642 62.6538 118.512 62.459C118.388 62.2642 118.326 62.0396 118.326 61.7853C118.326 61.5093 118.396 61.2712 118.537 61.071C118.683 60.8708 118.886 60.7165 119.146 60.6083C119.405 60.4947 119.708 60.4378 120.055 60.4378C120.25 60.4378 120.447 60.4595 120.647 60.5028C120.847 60.5461 121.026 60.6029 121.183 60.6732V60.3648C121.183 60.1375 121.137 59.94 121.045 59.7722C120.958 59.5991 120.837 59.4665 120.68 59.3745C120.523 59.2771 120.339 59.2284 120.128 59.2284C119.873 59.2284 119.652 59.2879 119.462 59.407C119.278 59.526 119.14 59.6938 119.048 59.9102L118.48 59.7154C118.556 59.499 118.672 59.3123 118.829 59.1553C118.991 58.9984 119.183 58.8766 119.405 58.7901C119.633 58.7035 119.876 58.6602 120.136 58.6602C120.471 58.6602 120.764 58.7332 121.013 58.8794C121.267 59.02 121.462 59.2203 121.597 59.48C121.738 59.7344 121.808 60.0347 121.808 60.381V62.9623H121.24L121.199 62.3129C121.08 62.5456 120.899 62.7323 120.655 62.873C120.417 63.0137 120.141 63.084 119.827 63.084ZM118.983 61.7609C118.983 61.9179 119.024 62.0559 119.105 62.1749C119.186 62.2886 119.3 62.3778 119.446 62.4428C119.592 62.5077 119.76 62.5402 119.949 62.5402C120.182 62.5402 120.39 62.4888 120.574 62.386C120.764 62.2777 120.912 62.1343 121.021 61.9558C121.129 61.7718 121.183 61.5634 121.183 61.3307V61.1765C121.004 61.1062 120.823 61.052 120.639 61.0142C120.461 60.9709 120.29 60.9492 120.128 60.9492C119.771 60.9492 119.489 61.0223 119.284 61.1684C119.083 61.3145 118.983 61.512 118.983 61.7609ZM124.352 63.084C124.098 63.084 123.879 63.0326 123.695 62.9298C123.511 62.827 123.367 62.6755 123.264 62.4753C123.167 62.275 123.118 62.0315 123.118 61.7447V59.3258H122.347V58.7738H123.118V57.3696H123.768V58.7738H125.083V59.3258H123.768V61.7122C123.768 61.9612 123.819 62.156 123.922 62.2967C124.03 62.432 124.192 62.4996 124.409 62.4996C124.523 62.4996 124.636 62.4834 124.75 62.4509C124.869 62.413 124.974 62.3643 125.066 62.3048L125.261 62.8081C125.148 62.8892 125.015 62.9542 124.863 63.0029C124.712 63.057 124.541 63.084 124.352 63.084ZM127.822 63.084C127.535 63.084 127.27 63.0299 127.026 62.9217C126.783 62.8135 126.569 62.6619 126.385 62.4671C126.201 62.2669 126.057 62.0342 125.955 61.7691C125.857 61.5039 125.809 61.2144 125.809 60.9005C125.809 60.5867 125.86 60.2944 125.963 60.0239C126.066 59.7479 126.209 59.5071 126.393 59.3014C126.577 59.0958 126.793 58.9362 127.042 58.8225C127.291 58.7089 127.562 58.6521 127.854 58.6521C128.125 58.6521 128.368 58.7008 128.585 58.7982C128.806 58.8956 128.996 59.0282 129.153 59.1959C129.315 59.3637 129.44 59.5558 129.526 59.7722L128.934 59.9752C128.815 59.7479 128.66 59.5693 128.471 59.4394C128.282 59.3096 128.068 59.2446 127.83 59.2446C127.635 59.2446 127.456 59.2879 127.294 59.3745C127.132 59.4557 126.988 59.5693 126.864 59.7154C126.739 59.8615 126.642 60.0374 126.572 60.243C126.507 60.4433 126.474 60.6597 126.474 60.8924C126.474 61.1251 126.507 61.3388 126.572 61.5337C126.642 61.7285 126.737 61.8989 126.856 62.045C126.975 62.1857 127.115 62.2967 127.278 62.3778C127.446 62.4536 127.627 62.4915 127.822 62.4915C128.071 62.4915 128.298 62.4293 128.503 62.3048C128.715 62.1749 128.874 61.9963 128.982 61.7691L129.575 61.972C129.488 62.1993 129.356 62.3968 129.177 62.5645C129.004 62.7269 128.798 62.8541 128.56 62.946C128.328 63.038 128.081 63.084 127.822 63.084ZM130.451 62.9623V56.9394H131.1V59.3826C131.225 59.1607 131.403 58.9849 131.636 58.855C131.869 58.7197 132.131 58.6521 132.423 58.6521C132.742 58.6521 133.021 58.7278 133.259 58.8794C133.497 59.0309 133.679 59.2473 133.803 59.5287C133.933 59.8047 133.998 60.1321 133.998 60.5109V62.9623H133.349V60.5515C133.349 60.1348 133.257 59.8128 133.073 59.5855C132.894 59.3583 132.637 59.2446 132.301 59.2446C132.069 59.2446 131.86 59.2987 131.676 59.407C131.498 59.5098 131.357 59.6559 131.254 59.8453C131.152 60.0293 131.1 60.2403 131.1 60.4784V62.9623H130.451ZM135.875 57.5481C135.875 57.6293 135.853 57.7051 135.81 57.7754C135.772 57.8404 135.718 57.8945 135.648 57.9378C135.583 57.9756 135.51 57.9946 135.429 57.9946C135.347 57.9946 135.272 57.9756 135.201 57.9378C135.136 57.8945 135.082 57.8404 135.039 57.7754C135.001 57.7051 134.982 57.6293 134.982 57.5481C134.982 57.467 135.001 57.3939 135.039 57.329C135.082 57.2586 135.136 57.2045 135.201 57.1666C135.272 57.1233 135.347 57.1017 135.429 57.1017C135.51 57.1017 135.583 57.1233 135.648 57.1666C135.718 57.2045 135.772 57.2586 135.81 57.329C135.853 57.3939 135.875 57.467 135.875 57.5481ZM135.104 62.9623V58.7738H135.753V62.9623H135.104ZM136.887 62.9623V58.7738H137.472L137.504 59.4394C137.629 59.2013 137.807 59.0119 138.04 58.8712C138.278 58.7251 138.551 58.6521 138.86 58.6521C139.179 58.6521 139.458 58.7278 139.696 58.8794C139.934 59.0309 140.115 59.2473 140.24 59.5287C140.37 59.8047 140.435 60.1321 140.435 60.5109V62.9623H139.785V60.5515C139.785 60.1348 139.693 59.8128 139.509 59.5855C139.331 59.3583 139.074 59.2446 138.738 59.2446C138.505 59.2446 138.297 59.2987 138.113 59.407C137.935 59.5098 137.794 59.6559 137.691 59.8453C137.588 60.0293 137.537 60.2403 137.537 60.4784V62.9623H136.887ZM143.269 62.9217C142.993 62.9217 142.736 62.8676 142.498 62.7594C142.266 62.6511 142.06 62.5023 141.881 62.3129C141.708 62.1181 141.573 61.8908 141.476 61.6311C141.378 61.3713 141.329 61.0926 141.329 60.795C141.329 60.492 141.378 60.2106 141.476 59.9508C141.578 59.6911 141.719 59.4638 141.898 59.269C142.076 59.0742 142.285 58.9226 142.523 58.8144C142.766 58.7062 143.026 58.6521 143.302 58.6521C143.621 58.6521 143.911 58.7278 144.17 58.8794C144.436 59.0309 144.641 59.2392 144.787 59.5044L144.82 58.7738H145.404V62.6051C145.404 62.9244 145.356 63.2139 145.258 63.4737C145.161 63.7388 145.023 63.9661 144.844 64.1555C144.666 64.3449 144.452 64.4883 144.203 64.5857C143.954 64.6885 143.678 64.7399 143.375 64.7399C143.11 64.7399 142.861 64.6994 142.628 64.6182C142.396 64.5424 142.187 64.4288 142.003 64.2773C141.825 64.1312 141.676 63.9553 141.557 63.7496L142.101 63.4737C142.258 63.7009 142.441 63.8741 142.653 63.9932C142.869 64.1176 143.11 64.1799 143.375 64.1799C143.656 64.1799 143.9 64.1149 144.106 63.985C144.317 63.8606 144.476 63.682 144.584 63.4493C144.698 63.2166 144.755 62.9433 144.755 62.6295V62.0937C144.603 62.3535 144.398 62.5564 144.138 62.7025C143.878 62.8486 143.589 62.9217 143.269 62.9217ZM143.383 62.3291C143.583 62.3291 143.767 62.2913 143.935 62.2155C144.108 62.1397 144.257 62.0342 144.381 61.8989C144.506 61.7582 144.601 61.5932 144.666 61.4038C144.736 61.2144 144.771 61.0088 144.771 60.7869C144.771 60.565 144.736 60.3594 144.666 60.17C144.601 59.9806 144.506 59.8182 144.381 59.6829C144.257 59.5423 144.108 59.434 143.935 59.3583C143.767 59.2825 143.583 59.2446 143.383 59.2446C143.183 59.2446 142.996 59.2825 142.823 59.3583C142.655 59.434 142.509 59.5423 142.385 59.6829C142.26 59.8182 142.163 59.9806 142.092 60.17C142.028 60.3594 141.995 60.565 141.995 60.7869C141.995 61.0088 142.028 61.2144 142.092 61.4038C142.163 61.5932 142.26 61.7582 142.385 61.8989C142.509 62.0342 142.655 62.1397 142.823 62.2155C142.996 62.2913 143.183 62.3291 143.383 62.3291Z" fill="#00E5CC"/>
<rect opacity="0.04" x="41.2344" y="81.9373" width="170.46" height="0.811715" fill="#060640"/>
<path d="M41.9162 103.925V97.0089H43.1046V102.863H46.0365V103.925H41.9162ZM48.2976 97.4082C48.2976 97.5316 48.2651 97.6453 48.2002 97.7492C48.1418 97.8531 48.0606 97.9375 47.9567 98.0024C47.8528 98.0608 47.7391 98.0901 47.6158 98.0901C47.4924 98.0901 47.3787 98.0608 47.2748 98.0024C47.1709 97.9375 47.0865 97.8531 47.0216 97.7492C46.9631 97.6453 46.9339 97.5316 46.9339 97.4082C46.9339 97.2849 46.9631 97.1712 47.0216 97.0673C47.0865 96.9634 47.1709 96.8822 47.2748 96.8238C47.3787 96.7589 47.4924 96.7264 47.6158 96.7264C47.7391 96.7264 47.8528 96.7589 47.9567 96.8238C48.0606 96.8822 48.1418 96.9634 48.2002 97.0673C48.2651 97.1712 48.2976 97.2849 48.2976 97.4082ZM47.0606 103.925V98.8304H48.1807V103.925H47.0606ZM50.8716 103.925L48.9235 98.8304H50.1508L51.4561 102.756L52.771 98.8304H53.9594L52.0113 103.925H50.8716ZM56.9137 104.071C56.5371 104.071 56.1896 104.006 55.8714 103.876C55.5597 103.74 55.287 103.551 55.0532 103.311C54.8195 103.071 54.6376 102.788 54.5078 102.464C54.3844 102.132 54.3227 101.769 54.3227 101.373C54.3227 100.99 54.3844 100.636 54.5078 100.311C54.6376 99.9862 54.813 99.7038 55.0338 99.4635C55.261 99.2167 55.5273 99.0252 55.8325 98.8888C56.1377 98.7524 56.4689 98.6842 56.826 98.6842C57.1832 98.6842 57.5079 98.7492 57.8001 98.8791C58.0988 99.0024 58.3553 99.181 58.5696 99.4148C58.7904 99.6486 58.9592 99.9278 59.0761 100.252C59.193 100.571 59.2514 100.925 59.2514 101.314V101.645H55.4818C55.5143 101.944 55.5922 102.204 55.7156 102.425C55.8455 102.639 56.0111 102.805 56.2124 102.921C56.4137 103.038 56.6474 103.097 56.9137 103.097C57.4462 103.097 57.8618 102.86 58.1605 102.386L59.1443 102.766C59.0274 103.032 58.8553 103.266 58.628 103.467C58.4072 103.662 58.1475 103.811 57.8488 103.915C57.5566 104.019 57.2449 104.071 56.9137 104.071ZM56.826 99.5901C56.5987 99.5901 56.3942 99.6421 56.2124 99.746C56.037 99.8499 55.8877 99.996 55.7643 100.184C55.6409 100.373 55.5565 100.593 55.511 100.847H58.0826C58.0436 100.593 57.9689 100.373 57.8585 100.184C57.7481 99.996 57.602 99.8499 57.4202 99.746C57.2449 99.6421 57.0468 99.5901 56.826 99.5901ZM62.3581 103.925V97.0089H64.4524C65.0043 97.0089 65.4751 97.0998 65.8648 97.2816C66.2609 97.4634 66.5628 97.7232 66.7706 98.0608C66.9849 98.3985 67.0921 98.8076 67.0921 99.2882C67.0921 99.7427 66.9817 100.142 66.7609 100.486C66.5401 100.824 66.2284 101.087 65.8258 101.275C65.4232 101.457 64.9491 101.548 64.4037 101.548C64.2738 101.548 64.1342 101.541 63.9848 101.528C63.842 101.516 63.6894 101.499 63.527 101.48V103.925H62.3581ZM63.527 98.0414V100.447C63.6699 100.467 63.8127 100.483 63.9556 100.496C64.0985 100.509 64.2316 100.515 64.355 100.515C64.8485 100.515 65.2251 100.408 65.4849 100.194C65.7511 99.9797 65.8842 99.6745 65.8842 99.2784C65.8842 98.8888 65.7576 98.5868 65.5044 98.3725C65.2511 98.1518 64.8939 98.0414 64.4329 98.0414H63.527ZM67.9971 103.925V98.8304H69.0199L69.0686 99.668C69.1984 99.3823 69.377 99.1615 69.6043 99.0057C69.8381 98.8433 70.1108 98.7622 70.4225 98.7622C70.5199 98.7622 70.6141 98.7687 70.705 98.7817C70.7959 98.7946 70.8771 98.8174 70.9485 98.8498L70.8219 99.9408C70.7504 99.9148 70.6758 99.8986 70.5978 99.8921C70.5199 99.8791 70.442 99.8726 70.3641 99.8726C69.9744 99.8726 69.6692 100.002 69.4485 100.262C69.2277 100.522 69.1173 100.882 69.1173 101.343V103.925H67.9971ZM73.9883 104.071C73.6181 104.071 73.2739 104.006 72.9557 103.876C72.644 103.74 72.3713 103.551 72.1375 103.311C71.9038 103.064 71.7219 102.779 71.5921 102.454C71.4622 102.123 71.3973 101.762 71.3973 101.373C71.3973 100.99 71.4622 100.636 71.5921 100.311C71.7219 99.9797 71.9038 99.694 72.1375 99.4538C72.3778 99.207 72.657 99.0187 72.9752 98.8888C73.2999 98.7524 73.6506 98.6842 74.0272 98.6842C74.3974 98.6842 74.7383 98.7524 75.05 98.8888C75.3682 99.0187 75.6442 99.207 75.8779 99.4538C76.1117 99.694 76.2935 99.9765 76.4234 100.301C76.5533 100.626 76.6182 100.983 76.6182 101.373C76.6182 101.762 76.5533 102.123 76.4234 102.454C76.2935 102.779 76.1085 103.064 75.8682 103.311C75.6344 103.551 75.3552 103.74 75.0305 103.876C74.7123 104.006 74.3649 104.071 73.9883 104.071ZM74.0077 103.058C74.287 103.058 74.537 102.986 74.7578 102.843C74.9785 102.694 75.1506 102.493 75.274 102.24C75.4039 101.986 75.4688 101.697 75.4688 101.373C75.4688 101.048 75.4039 100.762 75.274 100.515C75.1506 100.262 74.9785 100.064 74.7578 99.9213C74.537 99.7719 74.287 99.6973 74.0077 99.6973C73.7285 99.6973 73.4785 99.7719 73.2577 99.9213C73.0369 100.064 72.8616 100.262 72.7317 100.515C72.6083 100.762 72.5466 101.048 72.5466 101.373C72.5466 101.697 72.6083 101.986 72.7317 102.24C72.8616 102.493 73.0369 102.694 73.2577 102.843C73.4785 102.986 73.7285 103.058 74.0077 103.058ZM77.6045 103.925V98.8304H78.6273L78.6662 99.5122C78.8156 99.2589 79.0202 99.0576 79.2799 98.9083C79.5396 98.7589 79.8351 98.6842 80.1663 98.6842C80.5234 98.6842 80.8384 98.7752 81.1111 98.957C81.3839 99.1323 81.5949 99.3758 81.7443 99.6875C81.8417 99.4862 81.9715 99.3109 82.1339 99.1615C82.3027 99.0122 82.4975 98.8953 82.7183 98.8109C82.9456 98.7265 83.1891 98.6842 83.4489 98.6842C83.8255 98.6842 84.1534 98.7752 84.4327 98.957C84.7119 99.1323 84.9262 99.3856 85.0755 99.7167C85.2314 100.041 85.3093 100.431 85.3093 100.886V103.925H84.1892V101.012C84.1892 100.59 84.0982 100.265 83.9164 100.038C83.7346 99.8109 83.4846 99.6973 83.1664 99.6973C82.9456 99.6973 82.7475 99.7525 82.5722 99.8629C82.4034 99.9668 82.267 100.116 82.1631 100.311C82.0657 100.499 82.017 100.714 82.017 100.954V103.925H80.8968V101.012C80.8968 100.59 80.8059 100.265 80.6241 100.038C80.4423 99.8109 80.1923 99.6973 79.8741 99.6973C79.6533 99.6973 79.4552 99.7525 79.2799 99.8629C79.1111 99.9668 78.9747 100.116 78.8708 100.311C78.7734 100.499 78.7247 100.714 78.7247 100.954V103.925H77.6045ZM88.8845 104.071C88.5144 104.071 88.1702 104.006 87.852 103.876C87.5403 103.74 87.2676 103.551 87.0338 103.311C86.8 103.064 86.6182 102.779 86.4883 102.454C86.3584 102.123 86.2935 101.762 86.2935 101.373C86.2935 100.99 86.3584 100.636 86.4883 100.311C86.6182 99.9797 86.8 99.694 87.0338 99.4538C87.2741 99.207 87.5533 99.0187 87.8715 98.8888C88.1962 98.7524 88.5468 98.6842 88.9235 98.6842C89.2936 98.6842 89.6345 98.7524 89.9462 98.8888C90.2644 99.0187 90.5404 99.207 90.7742 99.4538C91.0079 99.694 91.1898 99.9765 91.3196 100.301C91.4495 100.626 91.5145 100.983 91.5145 101.373C91.5145 101.762 91.4495 102.123 91.3196 102.454C91.1898 102.779 91.0047 103.064 90.7644 103.311C90.5307 103.551 90.2514 103.74 89.9267 103.876C89.6085 104.006 89.2611 104.071 88.8845 104.071ZM88.904 103.058C89.1832 103.058 89.4332 102.986 89.654 102.843C89.8748 102.694 90.0469 102.493 90.1703 102.24C90.3001 101.986 90.3651 101.697 90.3651 101.373C90.3651 101.048 90.3001 100.762 90.1703 100.515C90.0469 100.262 89.8748 100.064 89.654 99.9213C89.4332 99.7719 89.1832 99.6973 88.904 99.6973C88.6247 99.6973 88.3747 99.7719 88.154 99.9213C87.9332 100.064 87.7578 100.262 87.628 100.515C87.5046 100.762 87.4429 101.048 87.4429 101.373C87.4429 101.697 87.5046 101.986 87.628 102.24C87.7578 102.493 87.9332 102.694 88.154 102.843C88.3747 102.986 88.6247 103.058 88.904 103.058ZM94.4716 104.071C93.9586 104.071 93.5559 103.925 93.2637 103.632C92.9715 103.334 92.8254 102.908 92.8254 102.356V99.7362H91.9293V98.8304H92.8254V97.1063H93.9456V98.8304H95.4261V99.7362H93.9456V102.24C93.9456 102.512 94.0008 102.723 94.1112 102.873C94.228 103.016 94.3969 103.087 94.6177 103.087C94.7346 103.087 94.8612 103.071 94.9976 103.038C95.1339 102.999 95.2605 102.947 95.3774 102.882L95.6307 103.73C95.4813 103.834 95.306 103.915 95.1047 103.973C94.9099 104.038 94.6988 104.071 94.4716 104.071ZM97.752 97.4082C97.752 97.5316 97.7195 97.6453 97.6546 97.7492C97.5962 97.8531 97.515 97.9375 97.4111 98.0024C97.3072 98.0608 97.1935 98.0901 97.0702 98.0901C96.9468 98.0901 96.8331 98.0608 96.7292 98.0024C96.6253 97.9375 96.5409 97.8531 96.476 97.7492C96.4175 97.6453 96.3883 97.5316 96.3883 97.4082C96.3883 97.2849 96.4175 97.1712 96.476 97.0673C96.5409 96.9634 96.6253 96.8822 96.7292 96.8238C96.8331 96.7589 96.9468 96.7264 97.0702 96.7264C97.1935 96.7264 97.3072 96.7589 97.4111 96.8238C97.515 96.8822 97.5962 96.9634 97.6546 97.0673C97.7195 97.1712 97.752 97.2849 97.752 97.4082ZM96.515 103.925V98.8304H97.6351V103.925H96.515ZM101.212 104.071C100.842 104.071 100.498 104.006 100.18 103.876C99.8682 103.74 99.5955 103.551 99.3617 103.311C99.1279 103.064 98.9461 102.779 98.8162 102.454C98.6864 102.123 98.6214 101.762 98.6214 101.373C98.6214 100.99 98.6864 100.636 98.8162 100.311C98.9461 99.9797 99.1279 99.694 99.3617 99.4538C99.602 99.207 99.8812 99.0187 100.199 98.8888C100.524 98.7524 100.875 98.6842 101.251 98.6842C101.622 98.6842 101.962 98.7524 102.274 98.8888C102.592 99.0187 102.868 99.207 103.102 99.4538C103.336 99.694 103.518 99.9765 103.648 100.301C103.777 100.626 103.842 100.983 103.842 101.373C103.842 101.762 103.777 102.123 103.648 102.454C103.518 102.779 103.333 103.064 103.092 103.311C102.859 103.551 102.579 103.74 102.255 103.876C101.936 104.006 101.589 104.071 101.212 104.071ZM101.232 103.058C101.511 103.058 101.761 102.986 101.982 102.843C102.203 102.694 102.375 102.493 102.498 102.24C102.628 101.986 102.693 101.697 102.693 101.373C102.693 101.048 102.628 100.762 102.498 100.515C102.375 100.262 102.203 100.064 101.982 99.9213C101.761 99.7719 101.511 99.6973 101.232 99.6973C100.953 99.6973 100.703 99.7719 100.482 99.9213C100.261 100.064 100.086 100.262 99.9559 100.515C99.8325 100.762 99.7708 101.048 99.7708 101.373C99.7708 101.697 99.8325 101.986 99.9559 102.24C100.086 102.493 100.261 102.694 100.482 102.843C100.703 102.986 100.953 103.058 101.232 103.058ZM104.829 103.925V98.8304H105.851L105.89 99.5317C106.04 99.2719 106.248 99.0674 106.514 98.918C106.787 98.7622 107.098 98.6842 107.449 98.6842C107.832 98.6842 108.163 98.7752 108.442 98.957C108.728 99.1388 108.949 99.3953 109.105 99.7265C109.261 100.058 109.339 100.447 109.339 100.895V103.925H108.218V101.022C108.218 100.606 108.124 100.282 107.936 100.048C107.754 99.8142 107.498 99.6973 107.166 99.6973C106.933 99.6973 106.722 99.7525 106.533 99.8629C106.351 99.9733 106.209 100.123 106.105 100.311C106.001 100.499 105.949 100.717 105.949 100.964V103.925H104.829Z" fill="#9090A7"/>
<g filter="url(#filter2_d_1_3083)">
<rect x="41.2344" y="158.239" width="36.5272" height="36.5272" rx="18.2636" fill="white"/>
<path d="M64.6727 175.975C65.0785 176.209 65.0785 176.795 64.6727 177.029L57.3672 181.247C56.9614 181.481 56.4541 181.188 56.4541 180.72V172.284C56.4541 171.816 56.9614 171.523 57.3672 171.757L64.6727 175.975Z" fill="#EDF6F3"/>
</g>
<rect x="88.3144" y="167.979" width="93.3473" height="4.87029" rx="2.43515" fill="#EDF6F3"/>
<rect x="88.3139" y="179.343" width="64.9372" height="4.87029" rx="2.43515" fill="#EDF6F3"/>
<g filter="url(#filter3_d_1_3083)">
<rect x="41.2344" y="113.594" width="36.5272" height="36.5272" rx="18.2636" fill="white"/>
<path d="M64.6727 131.331C65.0785 131.565 65.0785 132.151 64.6727 132.385L57.3672 136.603C56.9614 136.837 56.4541 136.544 56.4541 136.076V127.64C56.4541 127.171 56.9614 126.878 57.3672 127.113L64.6727 131.331Z" fill="#EDF6F3"/>
</g>
<rect x="88.3144" y="123.335" width="93.3473" height="4.87029" rx="2.43515" fill="#EDF6F3"/>
<rect x="88.3139" y="134.699" width="64.9372" height="4.87029" rx="2.43515" fill="#EDF6F3"/>
</g>
<defs>
<filter id="filter0_d_1_3083" x="0.648537" y="0.765692" width="251.632" height="242.703" filterUnits="userSpaceOnUse" color-interpolation-filters="sRGB">
<feFlood flood-opacity="0" result="BackgroundImageFix"/>
<feColorMatrix in="SourceAlpha" type="matrix" values="0 0 0 0 0 0 0 0 0 0 0 0 0 0 0 0 0 0 127 0" result="hardAlpha"/>
<feOffset dy="8.11716"/>
<feGaussianBlur stdDeviation="12.1757"/>
<feComposite in2="hardAlpha" operator="out"/>
<feColorMatrix type="matrix" values="0 0 0 0 0.0235294 0 0 0 0 0.0235294 0 0 0 0 0.25098 0 0 0 0.03 0"/>
<feBlend mode="normal" in2="BackgroundImageFix" result="effect1_dropShadow_1_3083"/>
<feBlend mode="normal" in="SourceGraphic" in2="effect1_dropShadow_1_3083" result="shape"/>
</filter>
<filter id="filter1_d_1_3083" x="31.2344" y="26.2344" width="56.5272" height="56.5272" filterUnits="userSpaceOnUse" color-interpolation-filters="sRGB">
<feFlood flood-opacity="0" result="BackgroundImageFix"/>
<feColorMatrix in="SourceAlpha" type="matrix" values="0 0 0 0 0 0 0 0 0 0 0 0 0 0 0 0 0 0 127 0" result="hardAlpha"/>
<feOffset dy="3"/>
<feGaussianBlur stdDeviation="5"/>
<feComposite in2="hardAlpha" operator="out"/>
<feColorMatrix type="matrix" values="0 0 0 0 0.0235294 0 0 0 0 0.0235294 0 0 0 0 0.25098 0 0 0 0.01 0"/>
<feBlend mode="normal" in2="BackgroundImageFix" result="effect1_dropShadow_1_3083"/>
<feBlend mode="normal" in="SourceGraphic" in2="effect1_dropShadow_1_3083" result="shape"/>
</filter>
<filter id="filter2_d_1_3083" x="31.2344" y="151.239" width="56.5272" height="56.5272" filterUnits="userSpaceOnUse" color-interpolation-filters="sRGB">
<feFlood flood-opacity="0" result="BackgroundImageFix"/>
<feColorMatrix in="SourceAlpha" type="matrix" values="0 0 0 0 0 0 0 0 0 0 0 0 0 0 0 0 0 0 127 0" result="hardAlpha"/>
<feOffset dy="3"/>
<feGaussianBlur stdDeviation="5"/>
<feComposite in2="hardAlpha" operator="out"/>
<feColorMatrix type="matrix" values="0 0 0 0 0.0235294 0 0 0 0 0.0235294 0 0 0 0 0.25098 0 0 0 0.01 0"/>
<feBlend mode="normal" in2="BackgroundImageFix" result="effect1_dropShadow_1_3083"/>
<feBlend mode="normal" in="SourceGraphic" in2="effect1_dropShadow_1_3083" result="shape"/>
</filter>
<filter id="filter3_d_1_3083" x="31.2344" y="106.594" width="56.5272" height="56.5272" filterUnits="userSpaceOnUse" color-interpolation-filters="sRGB">
<feFlood flood-opacity="0" result="BackgroundImageFix"/>
<feColorMatrix in="SourceAlpha" type="matrix" values="0 0 0 0 0 0 0 0 0 0 0 0 0 0 0 0 0 0 127 0" result="hardAlpha"/>
<feOffset dy="3"/>
<feGaussianBlur stdDeviation="5"/>
<feComposite in2="hardAlpha" operator="out"/>
<feColorMatrix type="matrix" values="0 0 0 0 0.0235294 0 0 0 0 0.0235294 0 0 0 0 0.25098 0 0 0 0.01 0"/>
<feBlend mode="normal" in2="BackgroundImageFix" result="effect1_dropShadow_1_3083"/>
<feBlend mode="normal" in="SourceGraphic" in2="effect1_dropShadow_1_3083" result="shape"/>
</filter>
</defs>
</svg>
